<svg xmlns="http://www.w3.org/2000/svg" xmlns:xlink="http://www.w3.org/1999/xlink" width="27" height="20" viewBox="0 0 27 20"><defs><path id="raz5a" d="M61 36v-5h15v5z"/><path id="raz5b" d="M67.529 38.544S66.51 26.66 67.8 26.386c1.291-.274 3.126 3.582 3.542 3.914.415.333 4.233-.181 4.638-.699.406-.517 1.557-4.663 2.56-4.344 1.005.32 3.69 10.667 3.69 12.228 0 1.562-14.702 1.059-14.702 1.059z"/><path id="raz5c" d="M64 36h21v6a3 3 0 0 1-3 3H67a3 3 0 0 1-3-3z"/><path id="raz5d" d="M88 36v-5H74v5z"/></defs><g><g transform="translate(-61 -25)"><use fill="#4e82fe" xlink:href="#raz5a"/></g><g transform="rotate(6 282.014 -562.475)"><use fill="#fff" xlink:href="#raz5b"/></g><g transform="translate(-61 -25)"><use fill="#4e82fe" xlink:href="#raz5c"/></g><g transform="translate(-61 -25)"><use fill="#4e82fe" xlink:href="#raz5d"/></g></g></svg>